<svg width="141" height="140" viewBox="0 0 141 140" fill="none" xmlns="http://www.w3.org/2000/svg">
<path fill-rule="evenodd" clip-rule="evenodd" d="M66.7335 10.2054C80.5607 7.85826 95.4603 8.52832 107.38 15.9146C119.743 23.5756 127.123 36.9345 131.981 50.6374C136.946 64.643 142.091 80.9166 135.068 94.0131C128.196 106.827 110.547 107.577 97.7444 114.48C87.197 120.166 78.6487 129.569 66.7335 130.854C54.0228 132.224 41.1311 128.753 30.4488 121.734C19.4171 114.485 10.9849 103.795 6.60797 91.3475C2.15746 78.6904 0.455893 64.3264 5.9606 52.0903C11.2328 40.3712 24.433 35.493 35.0173 28.1983C45.276 21.128 54.4478 12.2909 66.7335 10.2054Z" fill="#F0F4FD"/>
<circle cx="70.5" cy="70" r="32" fill="url(#paint0_linear_16098_294131)"/>
<path opacity="0.22" d="M59.9952 71.4284C58.4331 69.8664 55.9004 69.8664 54.3383 71.4284C52.7762 72.9905 52.7762 75.5232 54.3383 77.0853L59.9952 71.4284ZM88.4396 66.6058C90.0017 65.0437 90.0017 62.511 88.4396 60.9489C86.8775 59.3868 84.3449 59.3868 82.7828 60.9489L88.4396 66.6058ZM54.3383 77.0853L61.9066 84.6535L67.5634 78.9967L59.9952 71.4284L54.3383 77.0853ZM70.3918 84.6535L88.4396 66.6058L82.7828 60.9489L64.735 78.9967L70.3918 84.6535ZM61.9066 84.6535C64.2497 86.9967 68.0487 86.9967 70.3918 84.6535L64.735 78.9967C65.516 78.2156 66.7824 78.2156 67.5634 78.9967L61.9066 84.6535Z" fill="#101828"/>
<path d="M56.2778 71.5889L63.8461 79.1572C64.6271 79.9382 65.8935 79.9382 66.6745 79.1571L84.7223 61.1094" stroke="white" stroke-width="8" stroke-linecap="round" stroke-linejoin="round"/>
<path d="M76.8761 53.0343L76.112 56.8504L79.1072 54.2727L82.6854 54.7559L80.6021 51.6118L81.3761 47.6686L78.2678 50.2823L74.5214 50.0895L76.8761 53.0343Z" fill="white"/>
<path d="M88.8522 52.9103L87.1018 54.4559L87.5377 52.1253L86.2094 50.4138L88.4685 50.5482L90.2818 48.9592L89.8613 51.3593L91.0895 53.2456L88.8522 52.9103Z" fill="white"/>
<circle cx="93.5" cy="33" r="3" fill="url(#paint1_linear_16098_294131)"/>
<circle cx="102.5" cy="100" r="5" fill="url(#paint2_linear_16098_294131)"/>
<path d="M25.6626 83.5801L21.8537 86.2826L26.5908 86.4981L29.3168 89.8659L30.0867 85.4059L34.0088 82.6006L29.1434 82.3233L26.0313 79.0706L25.6626 83.5801Z" fill="url(#paint3_linear_16098_294131)"/>
<defs>
<linearGradient id="paint0_linear_16098_294131" x1="45.6111" y1="48.2222" x2="91.3889" y2="94" gradientUnits="userSpaceOnUse">
<stop stop-color="#60B864"/>
<stop offset="1" stop-color="#12B76A"/>
</linearGradient>
<linearGradient id="paint1_linear_16098_294131" x1="91.1667" y1="30.9583" x2="95.4583" y2="35.25" gradientUnits="userSpaceOnUse">
<stop stop-color="#60B864"/>
<stop offset="1" stop-color="#308A36"/>
</linearGradient>
<linearGradient id="paint2_linear_16098_294131" x1="98.6111" y1="96.5972" x2="105.764" y2="103.75" gradientUnits="userSpaceOnUse">
<stop stop-color="#60B864"/>
<stop offset="1" stop-color="#308A36"/>
</linearGradient>
<linearGradient id="paint3_linear_16098_294131" x1="33.5964" y1="85.2955" x2="22.4574" y2="82.8473" gradientUnits="userSpaceOnUse">
<stop stop-color="#60B864"/>
<stop offset="1" stop-color="#308A36"/>
</linearGradient>
</defs>
</svg>
